<svg width="20" height="20" viewBox="0 0 20 20" fill="none" xmlns="http://www.w3.org/2000/svg">
<g opacity="0.5">
<g clip-path="url(#clip0_5337_14258)">
<rect width="20" height="20" rx="10" fill="black"/>
<path d="M18.3704 0H1.62958C0.729586 0 0 0.729586 0 1.62958V18.3704C0 19.2704 0.729586 20 1.62958 20H18.3704C19.2704 20 20 19.2704 20 18.3704V1.62958C20 0.729586 19.2704 0 18.3704 0Z" fill="black"/>
</g>
<g clip-path="url(#clip1_5337_14258)">
<path d="M13.1873 9.77536C13.172 8.1305 14.5833 7.34078 14.6456 7.30418C13.8525 6.18658 12.616 6.03081 12.1774 6.01212C11.1246 5.9101 10.1227 6.60947 9.59025 6.60947C9.05777 6.60947 8.23235 6.02848 7.36161 6.04561C6.21249 6.06041 5.15724 6.68813 4.56568 7.67334C3.37448 9.66243 4.25979 12.611 5.42267 14.224C5.98914 15.0137 6.66485 15.9008 7.55259 15.8688C8.40957 15.8369 8.73327 15.3369 9.76748 15.3369C10.8017 15.3369 11.0922 15.8688 11.9977 15.8556C12.9178 15.8369 13.5013 15.0472 14.0629 14.2574C14.7136 13.3408 14.9838 12.4537 14.9992 12.407C14.979 12.4 13.2043 11.7442 13.1865 9.77536H13.1873Z" fill="white"/>
<path d="M11.4855 5.07477C11.9581 4.5257 12.2761 3.7609 12.1887 3C11.5098 3.02492 10.6868 3.43692 10.2004 3.98364C9.76262 4.47196 9.37823 5.25234 9.48263 5.99688C10.2393 6.05218 11.0153 5.62539 11.4855 5.07477Z" fill="white"/>
</g>
</g>
<defs>
<clipPath id="clip0_5337_14258">
<rect width="20" height="20" rx="10" fill="white"/>
</clipPath>
<clipPath id="clip1_5337_14258">
<rect width="11" height="13" fill="white" transform="translate(4 3)"/>
</clipPath>
</defs>
</svg>
