<svg width="18" height="18" viewBox="0 0 18 18" fill="none" xmlns="http://www.w3.org/2000/svg">
<path d="M9 0C13.9706 0 18 4.02944 18 9C18 13.9706 13.9706 18 9 18C4.02944 18 0 13.9706 0 9C0 4.02944 4.02944 0 9 0ZM12.9795 5.02051C12.6135 4.65448 12.0344 4.63107 11.6416 4.95117L11.5654 5.02051L9 7.58594L6.43457 5.02051L6.3584 4.95117C5.96563 4.63107 5.38653 4.65448 5.02051 5.02051C4.65448 5.38653 4.63107 5.96563 4.95117 6.3584L5.02051 6.43457L7.58594 9L5.02051 11.5654C4.62998 11.956 4.62998 12.589 5.02051 12.9795C5.41103 13.37 6.04405 13.37 6.43457 12.9795L9 10.4141L11.5654 12.9795C11.956 13.37 12.589 13.37 12.9795 12.9795C13.37 12.589 13.37 11.956 12.9795 11.5654L10.4141 9L12.9795 6.43457L13.0488 6.3584C13.3689 5.96563 13.3455 5.38653 12.9795 5.02051Z" fill="currentColor"/>
</svg>
